<svg width="200" height="72" viewBox="0 0 200 72" fill="none" xmlns="http://www.w3.org/2000/svg">
<g filter="url(#filter0_d_971_2728)">
<mask id="path-1-inside-1_971_2728" fill="white">
<path d="M56.9344 40.561C58.7157 41.1681 59.6858 43.1162 58.8698 44.8121C57.4475 47.7681 55.5198 50.4633 53.1655 52.7724C49.9981 55.8792 46.1466 58.2005 41.9201 59.5502C37.6937 60.8999 33.2097 61.2405 28.8278 60.5446C24.446 59.8487 20.2881 58.1356 16.6878 55.5429C13.0874 52.9501 10.1447 49.5498 8.09559 45.6145C6.04649 41.6793 4.94804 37.3186 4.88832 32.8823C4.82859 28.4459 5.80926 24.0572 7.75168 20.0683C9.19536 17.1035 11.1405 14.4208 13.4932 12.1347C14.8429 10.8232 16.998 11.1258 18.1385 12.6228V12.6228C19.2789 14.1197 18.9659 16.2416 17.6668 17.6033C16.1355 19.2084 14.8561 21.0451 13.8789 23.0519C12.4027 26.0835 11.6574 29.4189 11.7027 32.7905C11.7481 36.1622 12.583 39.4763 14.1403 42.4671C15.6976 45.4579 17.9341 48.0421 20.6703 50.0126C23.4066 51.9831 26.5666 53.285 29.8968 53.8139C33.227 54.3428 36.6348 54.0839 39.8469 53.0582C43.0591 52.0324 45.9861 50.2682 48.3934 47.907C49.9869 46.3441 51.3233 44.5484 52.3602 42.5872C53.2398 40.9235 55.153 39.954 56.9344 40.561V40.561Z"/>
</mask>
<path d="M56.9344 40.561C58.7157 41.1681 59.6858 43.1162 58.8698 44.8121C57.4475 47.7681 55.5198 50.4633 53.1655 52.7724C49.9981 55.8792 46.1466 58.2005 41.9201 59.5502C37.6937 60.8999 33.2097 61.2405 28.8278 60.5446C24.446 59.8487 20.2881 58.1356 16.6878 55.5429C13.0874 52.9501 10.1447 49.5498 8.09559 45.6145C6.04649 41.6793 4.94804 37.3186 4.88832 32.8823C4.82859 28.4459 5.80926 24.0572 7.75168 20.0683C9.19536 17.1035 11.1405 14.4208 13.4932 12.1347C14.8429 10.8232 16.998 11.1258 18.1385 12.6228V12.6228C19.2789 14.1197 18.9659 16.2416 17.6668 17.6033C16.1355 19.2084 14.8561 21.0451 13.8789 23.0519C12.4027 26.0835 11.6574 29.4189 11.7027 32.7905C11.7481 36.1622 12.583 39.4763 14.1403 42.4671C15.6976 45.4579 17.9341 48.0421 20.6703 50.0126C23.4066 51.9831 26.5666 53.285 29.8968 53.8139C33.227 54.3428 36.6348 54.0839 39.8469 53.0582C43.0591 52.0324 45.9861 50.2682 48.3934 47.907C49.9869 46.3441 51.3233 44.5484 52.3602 42.5872C53.2398 40.9235 55.153 39.954 56.9344 40.561V40.561Z" stroke="white" stroke-width="54" mask="url(#path-1-inside-1_971_2728)"/>
<mask id="path-2-inside-2_971_2728" fill="white">
<path d="M18.3656 12.3429C17.2748 10.8687 17.5776 8.77018 19.169 7.85878C23.3765 5.44912 28.1487 4.1475 33.034 4.105C39.0307 4.05282 44.8899 5.90048 49.7719 9.38315C54.6539 12.8658 58.308 17.8047 60.2104 23.4918C61.7602 28.1249 62.0826 33.0609 61.1736 37.8236C60.8298 39.625 58.9441 40.5944 57.1952 40.0427V40.0427C55.4462 39.4911 54.5029 37.6257 54.7822 35.8132C55.3076 32.4033 55.0168 28.9006 53.9122 25.5986C52.4548 21.2415 49.6553 17.4578 45.9151 14.7896C42.1749 12.1215 37.686 10.7059 33.0918 10.7459C29.6101 10.7762 26.2034 11.6413 23.1502 13.2479C21.5273 14.1019 19.4565 13.8171 18.3656 12.3429V12.3429Z"/>
</mask>
<path d="M18.3656 12.3429C17.2748 10.8687 17.5776 8.77018 19.169 7.85878C23.3765 5.44912 28.1487 4.1475 33.034 4.105C39.0307 4.05282 44.8899 5.90048 49.7719 9.38315C54.6539 12.8658 58.308 17.8047 60.2104 23.4918C61.7602 28.1249 62.0826 33.0609 61.1736 37.8236C60.8298 39.625 58.9441 40.5944 57.1952 40.0427V40.0427C55.4462 39.4911 54.5029 37.6257 54.7822 35.8132C55.3076 32.4033 55.0168 28.9006 53.9122 25.5986C52.4548 21.2415 49.6553 17.4578 45.9151 14.7896C42.1749 12.1215 37.686 10.7059 33.0918 10.7459C29.6101 10.7762 26.2034 11.6413 23.1502 13.2479C21.5273 14.1019 19.4565 13.8171 18.3656 12.3429V12.3429Z" stroke="#232323" stroke-width="82" mask="url(#path-2-inside-2_971_2728)"/>
<circle cx="20.4578" cy="48.072" r="15.572" fill="white"/>
<path d="M57.0972 16.47C57.0972 23.2996 51.5608 28.836 44.7312 28.836C37.9017 28.836 32.3652 23.2996 32.3652 16.47C32.3652 9.64045 37.9017 4.104 44.7312 4.104C51.5608 4.104 57.0972 9.64045 57.0972 16.47Z" fill="#232323"/>
<path d="M102.875 26.2C102.875 28.2333 102.409 30.1 101.475 31.8C100.542 33.4667 99.1087 34.8167 97.1754 35.85C95.2421 36.8833 92.8421 37.4 89.9754 37.4H84.6754V50H76.1254V14.9H89.9754C92.7754 14.9 95.1421 15.3833 97.0754 16.35C99.0087 17.3167 100.459 18.65 101.425 20.35C102.392 22.05 102.875 24 102.875 26.2ZM89.3254 30.6C90.9587 30.6 92.1754 30.2167 92.9754 29.45C93.7754 28.6833 94.1754 27.6 94.1754 26.2C94.1754 24.8 93.7754 23.7167 92.9754 22.95C92.1754 22.1833 90.9587 21.8 89.3254 21.8H84.6754V30.6H89.3254ZM111.627 19.2C110.127 19.2 108.893 18.7667 107.927 17.9C106.993 17 106.527 15.9 106.527 14.6C106.527 13.2667 106.993 12.1667 107.927 11.3C108.893 10.4 110.127 9.95 111.627 9.95C113.093 9.95 114.293 10.4 115.227 11.3C116.193 12.1667 116.677 13.2667 116.677 14.6C116.677 15.9 116.193 17 115.227 17.9C114.293 18.7667 113.093 19.2 111.627 19.2ZM115.877 22.1V50H107.327V22.1H115.877ZM139.123 50L130.623 38.3V50H122.073V13H130.623V33.45L139.073 22.1H149.623L138.023 36.1L149.723 50H139.123ZM157.281 19.2C155.781 19.2 154.548 18.7667 153.581 17.9C152.648 17 152.181 15.9 152.181 14.6C152.181 13.2667 152.648 12.1667 153.581 11.3C154.548 10.4 155.781 9.95 157.281 9.95C158.748 9.95 159.948 10.4 160.881 11.3C161.848 12.1667 162.331 13.2667 162.331 14.6C162.331 15.9 161.848 17 160.881 17.9C159.948 18.7667 158.748 19.2 157.281 19.2ZM161.531 22.1V50H152.981V22.1H161.531Z" fill="white"/>
<path d="M166.027 36C166.027 33.1333 166.56 30.6167 167.627 28.45C168.727 26.2833 170.21 24.6167 172.077 23.45C173.944 22.2833 176.027 21.7 178.327 21.7C180.16 21.7 181.827 22.0833 183.327 22.85C184.86 23.6167 186.06 24.65 186.927 25.95V13H195.477V50H186.927V46C186.127 47.3333 184.977 48.4 183.477 49.2C182.01 50 180.294 50.4 178.327 50.4C176.027 50.4 173.944 49.8167 172.077 48.65C170.21 47.45 168.727 45.7667 167.627 43.6C166.56 41.4 166.027 38.8667 166.027 36ZM186.927 36.05C186.927 33.9167 186.327 32.2333 185.127 31C183.96 29.7667 182.527 29.15 180.827 29.15C179.127 29.15 177.677 29.7667 176.477 31C175.31 32.2 174.727 33.8667 174.727 36C174.727 38.1333 175.31 39.8333 176.477 41.1C177.677 42.3333 179.127 42.95 180.827 42.95C182.527 42.95 183.96 42.3333 185.127 41.1C186.327 39.8667 186.927 38.1833 186.927 36.05Z" fill="#232323"/>
</g>
<defs>
<filter id="filter0_d_971_2728" x="-3" y="0" width="205.562" height="73" filterUnits="userSpaceOnUse" color-interpolation-filters="sRGB">
<feFlood flood-opacity="0" result="BackgroundImageFix"/>
<feColorMatrix in="SourceAlpha" type="matrix" values="0 0 0 0 0 0 0 0 0 0 0 0 0 0 0 0 0 0 127 0" result="hardAlpha"/>
<feOffset dy="4"/>
<feGaussianBlur stdDeviation="2"/>
<feComposite in2="hardAlpha" operator="out"/>
<feColorMatrix type="matrix" values="0 0 0 0 0 0 0 0 0 0 0 0 0 0 0 0 0 0 0.25 0"/>
<feBlend mode="normal" in2="BackgroundImageFix" result="effect1_dropShadow_971_2728"/>
<feBlend mode="normal" in="SourceGraphic" in2="effect1_dropShadow_971_2728" result="shape"/>
</filter>
</defs>
</svg>
